<svg width="16" height="16" viewBox="0 0 16 16" fill="none" xmlns="http://www.w3.org/2000/svg">
<path d="M3.41482 12.5851C3.54336 12.7145 3.71842 12.7874 3.90081 12.7874C4.0832 12.7874 4.25825 12.7145 4.38656 12.5851L7.99995 8.97166L11.6268 12.5985C11.8951 12.8671 12.3303 12.8671 12.5985 12.5985C12.8671 12.3302 12.8671 11.8951 12.5985 11.6268L8.97166 7.99995L12.5985 4.37307C12.8671 4.10476 12.8671 3.66965 12.5985 3.40135C12.3302 3.13282 11.8951 3.13282 11.6268 3.40135L7.99995 7.02824L4.37307 3.41485C4.10476 3.14654 3.66965 3.14654 3.40135 3.41485C3.13282 3.68315 3.13282 4.11826 3.40135 4.38656L7.02824 7.99995L3.41485 11.6268C3.1541 11.8931 3.1541 12.3188 3.41485 12.5851H3.41482Z" fill="#0F1419"/>
</svg>
