<svg width="24" height="24" viewBox="0 0 24 24" fill="none" xmlns="http://www.w3.org/2000/svg">
<path d="M4.85713 5.38031H3.93839C3.42411 5.38031 2.93035 5.58388 2.56697 5.94817C2.20359 6.31155 2 6.80442 2 7.3187V17.2517C2 17.766 2.20357 18.2597 2.56697 18.6231C2.93035 18.9865 3.42411 19.1901 3.93839 19.1901H4.85713V5.38031Z" fill="white"/>
<path d="M20.0616 5.38031H19.1429V19.1901H20.0616C20.5759 19.1901 21.0696 18.9865 21.433 18.6231C21.7964 18.2597 22 17.766 22 17.2517V7.3187C22 6.80442 21.7964 6.31157 21.433 5.94817C21.0696 5.58387 20.5759 5.38031 20.0616 5.38031Z" fill="white"/>
<path d="M9.14282 4.42854C9.14282 4.16516 9.35621 3.95177 9.6187 3.95177H14.8571C14.983 3.95177 15.1044 4.00266 15.1937 4.09195C15.283 4.18123 15.333 4.30177 15.333 4.42856V4.90445H16.2857V4.42856C16.283 3.64018 15.6455 3.00178 14.8571 3H9.61872C8.83123 3.00179 8.19283 3.64018 8.19016 4.42856V4.90445H9.14284L9.14282 4.42854Z" fill="white"/>
<path d="M17.7142 18.7142V5.38031H10.0955V7.76155L10.4339 8.09995H10.433C10.5205 8.18834 10.5705 8.30799 10.5714 8.43298V10.6187C10.5714 10.7446 10.5214 10.866 10.4321 10.9553C10.3428 11.0446 10.2214 11.0946 10.0955 11.0946H9.14282C8.87944 11.0946 8.66694 10.8821 8.66694 10.6187V8.433C8.66783 8.308 8.71694 8.18836 8.80444 8.09997L9.14284 7.76157V5.38033H6.28571V18.7142C5.49822 18.7169 4.85982 19.3544 4.85715 20.1428C4.85715 20.9311 5.49644 21.5713 6.28571 21.5713C7.07499 21.5713 7.71427 20.9311 7.71427 20.1428C7.71517 19.7901 7.58392 19.4508 7.3473 19.1901H16.6526C16.416 19.4508 16.2848 19.7901 16.2857 20.1428C16.2857 20.9311 16.9249 21.5713 17.7142 21.5713C18.5035 21.5713 19.1428 20.9311 19.1428 20.1428C19.1401 19.3544 18.5017 18.7169 17.7142 18.7142Z" fill="white"/>
</svg>
