<svg width="24" height="24" viewBox="0 0 24 24" fill="none" xmlns="http://www.w3.org/2000/svg">
<path fill-rule="evenodd" clip-rule="evenodd" d="M12.005 1.91998C14.3519 1.91998 16.5086 2.73008 18.2147 4.0835L12.9207 9.59608C12.637 9.48428 12.3284 9.42148 12.005 9.42148C10.624 9.42148 9.50449 10.541 9.50449 11.922C9.50449 13.303 10.624 14.4225 12.005 14.4225C13.386 14.4225 14.5055 13.303 14.5055 11.922C14.5055 11.5532 14.423 11.2042 14.2796 10.8891L19.5688 5.38137C21.0867 7.13518 22.007 9.42047 22.007 11.922C22.007 17.4459 17.5289 21.924 12.005 21.924C6.48104 21.924 2.00299 17.4459 2.00299 11.922C2.00299 6.39803 6.48104 1.91998 12.005 1.91998ZM16.702 16.6177C15.4409 17.8571 13.7662 18.5529 12.005 18.5529C10.2438 18.5529 8.56913 17.8571 7.30801 16.6177L6.85137 17.0744C8.22121 18.4442 10.0481 19.2062 12.005 19.2062C13.9619 19.2062 15.7888 18.4442 17.1586 17.0744L16.702 16.6177ZM3.59999 11.1137C3.40865 11.1138 3.25345 11.2601 3.25324 11.4409C3.25324 11.6219 3.40852 11.7693 3.59999 11.7694H5.31298C5.50455 11.7694 5.65973 11.622 5.65973 11.4409C5.65952 11.26 5.50442 11.1137 5.31298 11.1137H3.59999ZM18.697 11.1137C18.5057 11.1138 18.3505 11.2601 18.3503 11.4409C18.3503 11.6219 18.5055 11.7693 18.697 11.7694H20.41C20.5018 11.7693 20.5904 11.7343 20.6554 11.6729C20.7203 11.6115 20.7567 11.5277 20.7567 11.4409C20.7565 11.2609 20.6018 11.1145 20.4112 11.1137H18.697ZM6.30439 5.59137C6.1683 5.46734 5.95179 5.46912 5.81845 5.59503C5.68518 5.72182 5.68245 5.92546 5.81357 6.05411L7.02719 7.2018C7.1624 7.3296 7.38314 7.32959 7.51923 7.2018C7.65435 7.07407 7.65305 6.86604 7.51801 6.73906L6.30439 5.59137ZM12.005 3.17023C11.8137 3.17023 11.6586 3.3167 11.6582 3.49745V5.11642C11.6582 5.29747 11.8134 5.44486 12.005 5.44486C12.1966 5.44486 12.3517 5.29747 12.3517 5.11642V3.49745C12.3514 3.3167 12.1963 3.17023 12.005 3.17023Z" fill="white"/>
</svg>
