<svg width="24" height="24" viewBox="0 0 24 24" fill="none" xmlns="http://www.w3.org/2000/svg">
<path d="M21.6867 2.15528C21.6867 2.15528 16.5439 0.929049 12.175 5.36832C8.92367 8.67221 7.90241 11.3685 6.57992 14.5561C7.53976 15.5008 8.54536 16.5364 9.50489 17.4811C12.671 16.1076 15.3655 15.0115 18.6167 11.7076C22.9862 7.26921 21.6872 2.15559 21.6872 2.15559L21.6867 2.15528ZM17.5721 9.1067C16.8178 9.8732 15.5847 9.88271 14.8182 9.12898C14.0517 8.37465 14.0422 7.14187 14.7965 6.37506C15.5508 5.60856 16.7836 5.59906 17.5501 6.35279C18.3166 7.10712 18.3264 8.3402 17.5721 9.1067H17.5721ZM7.03707 9.93053C3.20365 8.67404 2 12.911 2 12.911L5.41915 13.532C5.92045 12.3194 6.41373 11.1333 7.03707 9.93053ZM10.4235 18.6789L10.4027 18.6878L11.0041 22C11.0041 22 15.1289 20.7789 13.9739 17.0206C12.7907 17.6525 11.6203 18.1613 10.4235 18.6789L10.4235 18.6789ZM7.16624 19.3572C6.45646 20.0786 2.48589 21.5008 2.48589 21.5008C2.48589 21.5008 3.84486 17.5082 4.55434 16.7868C5.26412 16.0655 6.42414 16.0563 7.14518 16.766C7.86625 17.4764 7.87634 18.6358 7.16627 19.3572L7.16624 19.3572Z" fill="white"/>
</svg>
